<mxfile host="app.diagrams.net" modified="2021-12-27T12:12:10.995Z" agent="5.0 (Macintosh; Intel Mac OS X 10_15_7) AppleWebKit/537.36 (KHTML, like Gecko) Chrome/96.0.4664.110 Safari/537.36" etag="_5SBQ2dVAWhH1iZJh3k4" version="16.1.0" type="github">
  <diagram id="z-EMdHLSrIF4pkJDVUdX" name="Page-1">
    <mxGraphModel dx="946" dy="614" grid="1" gridSize="10" guides="1" tooltips="1" connect="1" arrows="1" fold="1" page="1" pageScale="1" pageWidth="827" pageHeight="1169" math="0" shadow="0">
      <root>
        <mxCell id="0" />
        <mxCell id="1" parent="0" />
        <mxCell id="7WssYtSdV8_zjqmno1ME-2" value="" style="rounded=0;whiteSpace=wrap;html=1;fillColor=#d5e8d4;strokeColor=#82b366;fontSize=16;" vertex="1" parent="1">
          <mxGeometry x="140" y="190" width="280" height="100" as="geometry" />
        </mxCell>
        <mxCell id="7WssYtSdV8_zjqmno1ME-3" value="业务归档" style="rounded=0;whiteSpace=wrap;html=1;fontSize=16;" vertex="1" parent="1">
          <mxGeometry x="150" y="240" width="120" height="40" as="geometry" />
        </mxCell>
        <mxCell id="7WssYtSdV8_zjqmno1ME-4" value="结构化" style="rounded=0;whiteSpace=wrap;html=1;fontSize=16;" vertex="1" parent="1">
          <mxGeometry x="290" y="240" width="120" height="40" as="geometry" />
        </mxCell>
        <mxCell id="7WssYtSdV8_zjqmno1ME-5" value="业务服务开发" style="text;html=1;strokeColor=none;fillColor=none;align=center;verticalAlign=middle;whiteSpace=wrap;rounded=0;fontSize=16;" vertex="1" parent="1">
          <mxGeometry x="220" y="200" width="110" height="30" as="geometry" />
        </mxCell>
      </root>
    </mxGraphModel>
  </diagram>
</mxfile>
